<?xml version="1.0" standalone="no"?>
<!DOCTYPE svg PUBLIC "-//W3C//DTD SVG 20010904//EN"
 "http://www.w3.org/TR/2001/REC-SVG-20010904/DTD/svg10.dtd">
<svg version="1.0" xmlns="http://www.w3.org/2000/svg"
 width="1000.000000pt" height="1000.000000pt" viewBox="0 0 500.000000 500.000000"
 preserveAspectRatio="xMidYMid meet">

<g transform="translate(0.000000,500.000000) scale(0.100000,-0.100000)"
fill="#000000" stroke="none">
<path d="M1080 2780 c0 -6 50 -10 130 -10 144 0 177 -9 222 -56 49 -53 62
-127 32 -190 -24 -49 -36 -56 -73 -41 l-31 13 25 24 c54 51 38 147 -30 176
-23 9 -72 14 -155 14 l-120 0 0 -295 c0 -190 4 -295 10 -295 6 0 10 55 10 145
l0 145 30 0 30 0 0 -145 0 -145 89 0 c49 0 102 5 118 11 19 7 29 7 31 0 6 -17
22 -13 22 5 0 9 14 32 30 51 l30 34 0 -51 c0 -27 5 -50 10 -50 6 0 10 61 10
163 l1 162 139 169 c77 92 140 170 140 172 0 19 -36 -19 -146 -153 l-129 -158
-3 158 c-1 93 -6 157 -12 157 -6 0 -10 -23 -10 -50 l0 -51 -30 34 c-16 19 -30
42 -30 51 0 18 -16 22 -22 5 -2 -7 -12 -7 -31 0 -36 14 -287 15 -287 1z m80
-185 l0 -95 -30 0 -30 0 0 95 0 95 30 0 30 0 0 -95z m211 66 c50 -50 33 -127
-33 -150 -17 -6 -60 -11 -94 -11 l-64 0 0 95 0 95 81 0 c76 0 82 -2 110 -29z
m109 -208 c0 -45 0 -46 -20 -28 -11 10 -20 23 -20 28 0 10 29 47 37 47 1 0 3
-21 3 -47z m-124 22 c56 -16 86 -43 109 -97 33 -81 5 -169 -67 -212 -39 -23
-56 -26 -131 -26 l-87 0 0 30 0 30 78 0 c58 0 85 5 108 19 63 38 70 128 13
175 -29 25 -36 26 -155 26 l-124 0 0 35 0 35 103 0 c62 0 123 -6 153 -15z
m-24 -76 c69 -19 90 -99 39 -150 -28 -27 -34 -29 -110 -29 l-81 0 0 95 0 95
58 0 c31 0 74 -5 94 -11z"/>
<path d="M1715 2608 c-83 -100 -156 -190 -163 -200 -11 -16 0 -33 99 -153 61
-74 116 -135 121 -135 13 0 10 4 -102 141 -55 67 -100 126 -100 132 0 6 7 19
16 28 16 17 22 12 118 -104 55 -68 115 -141 133 -163 17 -21 34 -36 38 -32 4
4 -50 76 -120 160 -70 84 -129 158 -132 165 -5 12 46 79 195 256 40 48 67 87
60 87 -7 0 -81 -82 -163 -182z"/>
<path d="M2080 2605 c0 -11 12 -15 50 -15 l50 0 0 -135 c0 -128 1 -135 20
-135 19 0 20 7 20 135 l0 135 45 0 c33 0 45 4 45 15 0 12 -19 15 -115 15 -96
0 -115 -3 -115 -15z"/>
<path d="M2650 2496 l0 -124 31 -26 c23 -19 42 -26 74 -26 32 0 51 7 74 26
l31 26 0 124 c0 117 -1 124 -20 124 -19 0 -20 -7 -20 -119 0 -134 -7 -151 -64
-151 -58 0 -68 22 -67 154 1 110 0 116 -19 116 -19 0 -20 -6 -20 -124z"/>
<path d="M3220 2469 l0 -151 81 4 c70 3 83 6 100 27 26 32 25 85 -3 113 -15
15 -18 23 -9 26 21 7 31 49 20 80 -13 38 -46 52 -124 52 l-65 0 0 -151z m140
101 c11 -11 20 -26 20 -34 0 -23 -41 -46 -82 -46 l-38 0 0 50 0 50 40 0 c27 0
47 -7 60 -20z m8 -122 c7 -7 12 -27 12 -45 0 -39 -21 -53 -79 -53 l-41 0 0 55
0 55 48 0 c26 0 53 -5 60 -12z"/>
<path d="M3780 2470 l0 -150 95 0 c78 0 95 3 95 15 0 12 -15 15 -75 15 l-75 0
0 55 0 55 65 0 c51 0 65 3 65 15 0 12 -14 15 -65 15 l-65 0 0 50 0 50 75 0
c60 0 75 3 75 15 0 12 -17 15 -95 15 l-95 0 0 -150z"/>
</g>
</svg>
